<svg>
  <g
     transform="translate(-357.74798,-409.57218)"
     id="g5407">
    <path
       id="path8639"
       d="m 690.35295,634.25772 0,7.85921 6.80629,3.9286 6.80629,-3.9286 0,-7.85921 -6.80629,3.9296 z"
       style="fill:#b9c6c9;fill-opacity:1;stroke:none;stroke-width:0.06242346;stroke-miterlimit:4;stroke-dasharray:none;stroke-opacity:1" />
    <path
       style="fill:#b9c6c9;fill-opacity:1;stroke:none;stroke-width:0.06242346;stroke-miterlimit:4;stroke-dasharray:none;stroke-opacity:1"
       d="m 697.15905,621.17306 -6.8061,3.92952 0,7.8589 6.8061,3.92949 0,0 6.80612,-3.92951 0,0 0,-7.8589 z m 0,1.43001 a 1.6111119,0.80555585 0 0 1 1.61118,0.80553 1.6111119,0.80555585 0 0 1 -1.61118,0.80566 1.6111119,0.80555585 0 0 1 -1.61108,-0.80566 1.6111119,0.80555585 0 0 1 1.61108,-0.80553 z m -2.9339,1.69386 a 1.6111119,0.80555585 0 0 1 1.61118,0.80552 1.6111119,0.80555585 0 0 1 -1.61118,0.80552 1.6111119,0.80555585 0 0 1 -1.61107,-0.80552 1.6111119,0.80555585 0 0 1 1.61107,-0.80552 z m 5.86781,0 a 1.6111119,0.80555585 0 0 1 1.61118,0.80552 1.6111119,0.80555585 0 0 1 -1.61118,0.80552 1.6111119,0.80555585 0 0 1 -1.61107,-0.80552 1.6111119,0.80555585 0 0 1 1.61107,-0.80552 z m -2.93391,1.69372 a 1.6111119,0.80555585 0 0 1 1.61118,0.80553 1.6111119,0.80555585 0 0 1 -1.61118,0.80565 1.6111119,0.80555585 0 0 1 -1.61108,-0.80565 1.6111119,0.80555585 0 0 1 1.61108,-0.80553 z"
       id="path8641"/>
  </g>
</svg>
